<?xml version="1.0" encoding="UTF-8"?>
<!-- Generator: Adobe Illustrator 19.1.0, SVG Export Plug-In . SVG Version: 6.00 Build 0)  -->
<svg version="1.1" id="Laag_1" xmlns="http://www.w3.org/2000/svg" xmlns:xlink="http://www.w3.org/1999/xlink" x="0px" y="0px" width="230px" height="230px" viewBox="0 0 230 230" style="enable-background:new 0 0 230 230;" xml:space="preserve">
<style type="text/css">
	.st0{fill:#FFFFFF;}
</style>
<path class="st0" d="M115,5C54.3,5,5,54.3,5,115c0,60.7,49.3,110,110,110c60.7,0,110-49.3,110-110C225,54.3,175.7,5,115,5z   M115,219.2c-57.4,0-104.2-46.7-104.2-104.2C10.8,57.6,57.6,10.8,115,10.8c57.4,0,104.2,46.7,104.2,104.2  C219.2,172.4,172.4,219.2,115,219.2z M48.7,95.7l-17.8-8.2c-1.6-0.7-2.2-2.3-1.5-3.8c0.6-1.3,1.7-1.8,3.2-1.7l12.5,0.7l-8.7-9  c-1.1-1-1.4-2.2-0.8-3.4c0.6-1.4,2.3-2,3.7-1.3l17.9,8.2c1.2,0.6,1.7,1.8,1.1,3.1c-0.6,1.2-1.9,1.7-3.1,1.1l-11.5-5.3l6.6,6.9  c0.9,0.9,1.1,1.7,0.7,2.5c-0.4,0.9-1.2,1.2-2.4,1.1l-9.5-0.5l11.5,5.3c1.2,0.6,1.7,1.9,1.1,3.1C51.2,95.8,49.9,96.3,48.7,95.7z   M81,53.7L65,42.2c-1.3-1-2.8-1.1-4-0.2c-1.2,0.9-1.5,2.3-0.9,3.8l6.3,18.6c0.2,0.5,0.3,0.9,0.5,1.2c0.8,1.1,2.1,1.3,3.2,0.5  c0.9-0.7,1.2-1.6,0.7-2.9l-1.2-3.3l5.7-4.2l2.9,2.1c1,0.8,2.1,0.8,3.1,0.1c1.2-0.9,1.4-2.2,0.5-3.4C81.6,54.2,81.3,54,81,53.7z   M68.2,56.2l-3.3-8.7l7.4,5.6L68.2,56.2z M96.1,48.8c0.2,1.4,1.4,2.3,2.9,2c1.4-0.2,2.3-1.4,2-2.9l-1.1-6.5l1.9-0.3l0.8-0.1l4.2,6.6  c0.7,1.1,1.6,1.6,2.8,1.4c1.4-0.2,2.3-1.4,2-2.9c-0.1-0.4-0.2-0.8-0.6-1.3l-4.1-6.1c2-1.6,3-4.1,2.6-6.9c-0.7-4.4-4.5-7.1-9.4-6.3  l-5.2,0.9c-1.4,0.2-2.3,1.4-2,2.8L96.1,48.8z M100.2,29.9c2.2-0.4,3.9,1,4.3,3.1c0.4,2.1-0.9,3.9-3.1,4.3l-2.2,0.4L98,30.3  L100.2,29.9z M127.5,47.3l5.6-19.1c0.4-1.4,1.7-2.1,3.1-1.7c1.4,0.4,2.1,1.7,1.7,3l-2.5,8.6l8-7.8c0.8-0.9,1.7-1.2,2.8-0.9  c1.3,0.4,2,1.6,1.6,2.8c-0.1,0.5-0.4,1-0.8,1.4l-7.1,6.2l2.6,10.1c0.1,0.7,0.1,1.2,0,1.7c-0.4,1.4-1.6,2.1-3,1.7  c-1.1-0.3-1.8-1.1-2-2.3l-2.6-11.6l-2.7,9.2c-0.4,1.4-1.7,2.1-3.1,1.7C127.8,50,127.1,48.7,127.5,47.3z M156.1,63  c-1.1-1-1.2-2.4-0.2-3.5l12.9-14.6c1-1.1,2.4-1.2,3.5-0.2l6.6,5.8c0.9,0.8,1,2.1,0.2,3.1c-0.9,1-2.2,1.1-3.1,0.2l-4.7-4.2l-3.6,4.1  l3.8,3.3c0.9,0.8,1,2,0.2,2.9c-0.8,0.9-2,1-2.9,0.2l-3.8-3.3l-4,4.6l4.9,4.3c0.9,0.8,1,2.1,0.2,3.1c-0.9,1-2.1,1-3.1,0.2L156.1,63z   M173.9,84.4l2,4.7c2,4.7,6.2,6.6,11.2,4.5l6.9-2.9c5-2.1,6.5-6.2,4.5-11l-2-4.8c-0.6-1.4-1.9-1.9-3.2-1.3l-18,7.6  C173.9,81.7,173.3,83,173.9,84.4z M193.4,78.9l1,2.4c0.9,2.1,0.1,3.9-2.4,4.9l-6.9,2.9c-2.5,1-4.3,0.4-5.2-1.7l-1-2.4L193.4,78.9z   M58,158c-1.1,0.7-2.3,0.3-2.9-0.8c-0.4-0.7-0.3-1.5,0-2.3c0.5-0.9,0.9-2.2,0.1-3.5c-0.7-1.1-1.9-1.6-3-0.9  c-1.4,0.9-1.7,2.5-1.7,5.4c0,3.6-0.6,7-3.7,8.9c-3.8,2.3-7.7,0.8-9.9-2.9c-2.1-3.5-1.1-6.7-0.1-8.3c0.3-0.6,0.7-1,1.1-1.3  c1.1-0.7,2.3-0.4,3,0.7c0.5,0.8,0.4,1.6,0,2.3c-0.6,1.2-1.5,2.8-0.5,4.4c0.8,1.4,2.2,1.7,3.5,1c1.6-1,1.8-2.8,1.8-5.9  c0-3.5,0.9-6.7,3.7-8.4c3.3-2,7.3-0.6,9.3,2.8c2,3.3,1.2,6.1,0.4,7.6C58.7,157.4,58.3,157.8,58,158z M74.5,170.5L62.3,186  c-0.9,1.2-2.4,1.4-3.6,0.4c-1.2-0.9-1.4-2.4-0.4-3.6l12.2-15.5c0.9-1.2,2.4-1.4,3.6-0.4C75.3,167.9,75.4,169.3,74.5,170.5z   M101.7,187.1c-0.4,1.4-1.7,2.1-3,1.7c-1.1-0.3-1.7-1.2-1.6-2.5c0.3-2-0.5-3.4-2.3-3.9c-1.9-0.6-3.5,0.4-4.2,2.7l-2.5,8.4  c-0.7,2.5,0.1,4.2,2.1,4.8c2,0.6,3.6-0.4,4.4-2.8l0.5-1.7l-1.7-0.5c-1-0.3-1.5-1.3-1.2-2.3c0.3-1,1.2-1.5,2.3-1.2l4,1.2  c1.4,0.4,2,1.5,1.6,2.9l-0.9,2.8c-1.5,4.9-5.7,6.9-10.3,5.6c-4.6-1.4-6.9-5.3-5.5-10.1l2.5-8.4c1.5-4.9,5.7-6.9,10.3-5.6  C100.5,179.5,102.8,183.3,101.7,187.1z M136.8,200.8c0.3,1.7-0.7,2.9-2.2,3.2c-1.2,0.2-2.2-0.4-2.9-1.6l-8.6-12.5l2.1,13.2  c0.2,1.3-0.6,2.4-1.9,2.6c-1.3,0.2-2.4-0.6-2.6-1.9l-3-19.4c-0.3-1.7,0.7-3.1,2.3-3.3c1.4-0.2,2.3,0.3,3.1,1.5l8.2,12l-2-12.6  c-0.2-1.3,0.6-2.4,1.9-2.6c1.3-0.2,2.4,0.6,2.6,1.9L136.8,200.8z M170,184.8c0.7,1.1,0.5,2.3-0.6,3l-7.5,5c-1.2,0.8-2.6,0.5-3.4-0.7  l-10.8-16.3c-0.8-1.2-0.5-2.6,0.7-3.4l7.3-4.9c1-0.7,2.3-0.4,3,0.6c0.7,1.1,0.5,2.4-0.6,3.1l-5.3,3.5l3,4.5l4.2-2.8  c1-0.7,2.2-0.4,2.9,0.6c0.7,1,0.4,2.2-0.6,2.9l-4.2,2.8l3.4,5.1l5.4-3.6C168,183.4,169.3,183.7,170,184.8z M189,151.8l-6.4-4  c-4.6-2.9-8.8-1.8-11.6,2.6l-2.8,4.4c-0.8,1.2-0.5,2.6,0.7,3.4l16.5,10.4c1.2,0.8,2.6,0.5,3.4-0.8l2.7-4.3  C194.4,159.2,193.6,154.6,189,151.8z M187.9,161.2l-1.4,2.2l-13.3-8.3l1.4-2.2c1.2-2,3.1-2.3,5.4-0.9l6.3,4  C188.7,157.4,189.2,159.3,187.9,161.2z M115,149.1c-13.4,0-24.3-10.9-24.3-24.3c0-8.1,4.1-15.6,10.6-20.1c-2-2.8-3.1-6.2-3.1-9.8  c0-9.3,7.6-16.9,16.9-16.9s16.9,7.6,16.9,16.9c0,1.6-1.3,2.9-2.9,2.9c-1.6,0-2.9-1.3-2.9-2.9c0-6.1-5-11-11-11c-6.1,0-11,5-11,11  c0,3.2,1.4,6.2,3.8,8.3c0.7,0.6,1.1,1.6,1,2.6c-0.1,1-0.8,1.8-1.6,2.2c-6.4,3-10.6,9.6-10.6,16.7c0,10.2,8.3,18.5,18.5,18.5  c10.2,0,18.5-8.3,18.5-18.5c0-0.2,0-0.3,0-0.5c-10.2-7.6-17-6.5-18.6-5.5c-1.3,0.8-2.1,2-2.3,3.3c-0.2,1.3,0.3,2.7,1.3,3.8  c1.7,1.9,4.9,2.4,7.1,1c1.4-0.9,3.2-0.5,4,0.9c0.9,1.4,0.5,3.2-0.9,4c-1.8,1.1-3.9,1.7-6,1.7c-3.2,0-6.4-1.3-8.6-3.7  c-2.2-2.4-3.1-5.5-2.7-8.5c0.4-3,2.2-5.7,4.9-7.4c3.7-2.3,13.4-3.6,26.4,6.7c10.8,8.5,18,7.4,19.7,6.3c1.3-0.8,2.1-2,2.3-3.3  c0.2-1.3-0.3-2.7-1.3-3.8c-1.7-1.9-4.9-2.4-7.1-1c-1.4,0.9-3.2,0.5-4-0.9c-0.9-1.4-0.5-3.2,0.9-4c4.6-2.9,11-2,14.6,2.1  c2.2,2.4,3.1,5.5,2.7,8.5c-0.4,3-2.2,5.7-4.9,7.4c-3.3,2.1-11.2,3.2-22-3.6C137.4,140,127.2,149.1,115,149.1z M197.4,115.7l-4,4l4,4  c0.7,0.7,0.7,1.7,0,2.4c-0.3,0.3-0.8,0.5-1.2,0.5c-0.4,0-0.9-0.2-1.2-0.5l-4-4l-4,4c-0.3,0.3-0.8,0.5-1.2,0.5s-0.9-0.2-1.2-0.5  c-0.7-0.7-0.7-1.7,0-2.4l4-4l-4-4c-0.7-0.7-0.7-1.7,0-2.4c0.7-0.7,1.7-0.7,2.4,0l4,4l4-4c0.7-0.7,1.7-0.7,2.4,0  C198,113.9,198,115,197.4,115.7z M39,122l-4,4c-0.3,0.3-0.8,0.5-1.2,0.5c-0.4,0-0.9-0.2-1.2-0.5c-0.7-0.7-0.7-1.7,0-2.4l4-4l-4-4  c-0.7-0.7-0.7-1.7,0-2.4c0.7-0.7,1.7-0.7,2.4,0l4,4l4-4c0.7-0.7,1.7-0.7,2.4,0c0.7,0.7,0.7,1.7,0,2.4l-4,4l4,4  c0.7,0.7,0.7,1.7,0,2.4c-0.3,0.3-0.8,0.5-1.2,0.5s-0.9-0.2-1.2-0.5L39,122z"/>
</svg>