<svg xmlns="http://www.w3.org/2000/svg" viewBox="0 0 1455.57 1289.42"><defs><style>.cls-1{fill:#8bc741;}</style></defs><g id="Layer_2" data-name="Layer 2"><g id="Layer_1-2" data-name="Layer 1"><path class="cls-1" d="M597.38,306.07c.3-6.78-3.08-13.24-7.38-18.49s-9.56-9.64-14-14.79c-11.52-13.36-16.84-30.91-26.35-45.77-4.27-6.67-9.93-13.14-17.6-15.09s-17.32,2.81-17.85,10.71a76.87,76.87,0,0,0,4,24.68,155.25,155.25,0,0,1,7.16,46.78c0,4.48-.21,9,.54,13.42a39.08,39.08,0,0,0,8.75,18.16c7.2,8.71,17.65,14.94,28.91,16a25,25,0,0,0,11.95-1.43c7.71-3.21,12.24-11.09,16.2-18.44C594.39,316.88,597.13,311.7,597.38,306.07Z"/><path class="cls-1" d="M643.15,174.76c2.48-10.06-.2-20.77-4.68-30.12-1.38-2.88-3-5.78-5.59-7.66a16.39,16.39,0,0,0-5.55-2.41,24.64,24.64,0,0,0-15.42.75,17.6,17.6,0,0,0-10.31,11.13c-3.88,15.27,5.21,27.9,9.92,39.42,1.19,2.91,2.65,6,5.48,7.4a9.94,9.94,0,0,0,4.58.8C632,193.8,640.66,184.83,643.15,174.76Z"/><path class="cls-1" d="M923.66,248.88A70.67,70.67,0,0,0,926,227.21c-.44-9.17-2.65-18.57,0-27.37,2.37-8,8.35-14.26,13.51-20.79a122,122,0,0,0,17.48-30.29c1.65-4.13,3.06-8.84,1.27-12.91-1.4-3.18-4.46-5.25-7.45-7A114.92,114.92,0,0,0,925,117.63c-5-1.5-10.39-2.66-15.58-1.71-7.69,1.4-13.83,7.17-18.63,13.35-9.4,12.12-15.33,26.53-20.81,40.86-5.21,13.6-10.18,27.64-10.29,42.2-.06,7,1.18,14.33,5.57,19.76,3.59,4.44,8.86,7.1,13.4,10.56,9.1,7,12.81,24,27.39,25.27C915.33,267.52,921.26,257.83,923.66,248.88Z"/><path class="cls-1" d="M1455.5,734.66c-.65-10.86-6.26-20.86-13.08-29.33-24.76-30.79-68.21-45.16-106.45-35.23-30.9,8-57,30-88.18,36.71-14.5,3-17.84,15.6-16.73,26.13s10.62,17.82,16.09,26.86c9.47,15.64,6.66,36.46,16.17,52.08a38.25,38.25,0,0,0,36.27,17.69c12.24-1.44,22.86-8.72,33.92-14.15a119.19,119.19,0,0,1,38-11.28c16.21-2,33.38-.73,48-8,14.35-7.09,23.91-21.31,30.23-36C1453.29,752.09,1456,743.44,1455.5,734.66Z"/><path class="cls-1" d="M1176.11,457c-1.42,8.39-1.2,17.41,2.84,24.91,5.38,10,16.62,15.58,27.78,17.69a68.06,68.06,0,0,0,48.79-9.49c11.08-7.11,19.83-17.31,27.42-28.07,17-24.11,17.43-67,46.77-78.29,3.82-1.42,7.72-2.89,10.87-5.48s5.48-6.53,5.06-10.58a14,14,0,0,0-2.94-6.68,28.07,28.07,0,0,0-25.52-10.91c-6.37.8-12.22,3.79-18,6.57-24.91,12-51.35,21.09-74.64,36S1180.74,429.72,1176.11,457Z"/><path class="cls-1" d="M889.07,1171.8c.17-7.5-3.22-14.55-5.57-21.67-4-12.2-5.22-25.64-12.34-36.33a18.81,18.81,0,0,0-6.7-6.54c-2.8-1.45-7.06-4.31-11,2a33.56,33.56,0,0,0-3.34,32.27c1.62,3.72,3.92,7.1,5.61,10.78,3,6.53,4.06,13.77,6.28,20.61s6.88,14,14,14.27C883.44,1187.43,888.9,1179.3,889.07,1171.8Z"/><path class="cls-1" d="M496.37,1288.32c4.42-2.52,8.06-6.2,11.48-10A189.73,189.73,0,0,0,549,1205.5a7.73,7.73,0,0,0,.46-3.88,7,7,0,0,0-2.83-3.67c-4.42-3.46-8.93-12.15-16.68-6.48a116.7,116.7,0,0,0-38,49.27c-5.85,14.4-8.67,31-2.59,45.34a5.37,5.37,0,0,0,2.45,3.09C493.28,1289.81,495,1289.12,496.37,1288.32Z"/><path class="cls-1" d="M316.72,1131.18a54.86,54.86,0,0,0-12-46.33c-2.51-2.9-5.53-5.65-9.28-6.45-5.48-1.17-11,2.12-14.86,6.16a37.75,37.75,0,0,0-10.32,22.72c-1.06,19.6-9.5,36.5-7.37,56.41.45,4.21,1.36,8.62,4.2,11.77,3.84,4.25,10.11,5.07,15.83,5.44,4.15.26,8.5.39,12.27-1.36,8-3.68,10.15-13.66,12.73-22C310.65,1148.64,314.83,1140.24,316.72,1131.18Z"/><path class="cls-1" d="M1351.46,1087.82c2.25-7.46,1.93-15.43,1.49-23.21-.37-6.33-.82-12.73-2.81-18.75-4.4-13.26-15.58-22.88-24.47-33.66-10.61-12.86-19.32-28.84-34.81-35a22,22,0,0,0-12.28-1.59,27.42,27.42,0,0,0-9.62,4.46c-4.33,2.84-8.49,6.1-11.52,10.31s-4.85,9.47-4.11,14.6c3.54,18.85,16.34,32.35,28,46.23,16.22,19.35,35.91,37.87,60.66,42.86a9.14,9.14,0,0,0,4.7.07C1349.27,1093.26,1350.66,1090.45,1351.46,1087.82Z"/><path class="cls-1" d="M312.55,878.11c.45-5.72-2.88-11.12-7-15.08-2-1.9-4.32-3.63-7-4.09s-4.19-.42-7.32,2.35a74.17,74.17,0,0,0-18.54,24.84c-4,8.73-6.28,18.68-3.84,28,1.2,4.54,4.28,9.32,9,9.66,3.31.24,6.34-1.85,8.69-4.19,7-6.95,10.55-16.56,16.42-24.46C306.81,889.78,312,884.71,312.55,878.11Z"/><path class="cls-1" d="M18.18,800.43a216.35,216.35,0,0,0,25.11,3c5.08.31,10.83.19,14.33-3.5,3.19-3.36,3.36-8.5,3.33-13.14-.05-6.55-.69-14.22-6.21-17.77-4.89-3.14-11.3-1.48-16.85.27-7.56,1.74-17.36,1.3-23.2,3.31A23.35,23.35,0,0,0,1.3,784.66c-1.3,2.78-2,6.22-.33,8.81a9.54,9.54,0,0,0,4.18,3.27A50.46,50.46,0,0,0,18.18,800.43Z"/><path class="cls-1" d="M1176.7,824c3.35-12.35,12.66-22.41,16.1-34.73,12.24-43.93-51.71-73.91-57.48-119.15-4.49-35.11,26.79-63.07,44-94,4.43-8,8.07-16.83,7.43-25.93-1.2-17-17.07-29.67-33.44-34.42-27.92-8.1-60.21,1.86-78.71,24.29-9,10.89-18.38,26-32.35,23.94-4.73-.7-8.9-3.46-12.57-6.52-18.94-15.74-28.6-41.9-24.45-66.17,7.88-46.11,59.13-76.59,63.74-123.14,2.5-25.22-11-51.32-33.09-63.82-14.7-8.33-35.14-9.9-47.13,2-4.52,4.48-7.35,10.37-9.61,16.32-14.53,38.29-8,81.18-15.31,121.46s-39.9,83.2-80.19,75.88c-29-5.27-48.22-36.66-47-66.15s18.75-56.16,40.27-76.35C893.37,362,914,346.54,915.42,324c1.34-21.38-17-40.18-37.56-46s-42.67-1.56-63.23,4.42c-8,2.32-16.4,5.23-21.48,11.8-5.54,7.18-5.82,17-5.86,26.06q-.16,40.37-.32,80.74c-.09,22-3,48.58-22.87,57.89-28.28,13.23-55.32-21.66-85.83-28.3-29.61-6.44-57.19,14.54-83.45,29.65s-65.28,22.43-82.39-2.58C498,436.54,508.87,403.91,491.58,385c-6.65-7.25-16.25-10.88-25.5-14.22-22.88-8.26-50.66-15.52-69.65-.32-14,11.23-17.77,31.94-12.81,49.22s17.06,31.6,30.26,43.8a234.18,234.18,0,0,0,65.66,42.78c13.23,5.73,27.95,11,35.6,23.22,12.83,20.48-3.42,49.19-26,57.83s-47.84,3.12-71.15-3.26-47.71-13.6-71.23-8.05c-24.21,5.71-43.13,23.9-63.73,37.85s-48.07,24-69.82,11.9c-11.86-6.59-21.8-19.49-35.33-18.46-8.76.66-15.81,7.19-21.82,13.59-19,20.31-36,44.74-38,72.51s16,58.39,43.6,61.89c10.54,1.33,21.19-1.26,31.24-4.7a185.17,185.17,0,0,0,83.11-58c7-8.6,13.72-18.23,23.94-22.52,21.37-9,44.5,10.38,54.64,31.22s14.44,45.3,30.56,61.95c8.33,8.6,19.14,14.32,28.53,21.74,40.28,31.82,47.42,97.81,14.87,137.51-15.36,18.74-37.06,31-55.25,47s-33.69,39-29.67,62.91c3.74,22.26,24.8,39.24,47.2,42s45.1-7.06,61.69-22.36c19.61-18.1,33-44.3,57.53-54.71,21.54-9.12,48.72-2.43,63.56,15.66,9.26,11.29,13.46,28.26,5.65,40.61-4.45,7-11.93,11.44-18.78,16.19a149.58,149.58,0,0,0-40.08,41.28c-6.78,10.44-11.76,25.53-2.89,34.27,4.26,4.2,10.58,5.48,16.56,5.79,26.62,1.4,53.4-13.89,65.72-37.53,12.75-24.44,15.16-60.29,41.69-67.75,40.83-11.48,63,63.1,105.34,59.78C791.25,1102.2,776,1014.44,869.51,997c40.69-5.43,85.46,19.71,121.14-.57,8.15-4.63,15-11.32,23-16.15,24.07-14.44,54.87-10,81.6-1.44s53,21,81.07,21.2,59.13-16.84,62.57-44.69C1245.06,905.26,1163.46,872.7,1176.7,824Z"/><path class="cls-1" d="M1024.28,196.75c3-2.74,4.26-6.91,4.65-10.95s0-8.11.31-12.16c.75-10.52,5.89-20.2,8.12-30.51,1-4.63,1.33-9.76-1.11-13.81s-8.52-6.11-12.08-3a46.3,46.3,0,0,0-8.7,12.15,92.85,92.85,0,0,1-16.68,22.85,48.25,48.25,0,0,0-5.43,5.92,23.41,23.41,0,0,0-3.94,11.38,26.26,26.26,0,0,0,5.49,19,15,15,0,0,0,5.68,4.43c4.62,1.89,9.86.45,14.64-1C1018.45,200.08,1021.8,199,1024.28,196.75Z"/><path class="cls-1" d="M934.12,399.06c1.8-5.94.53-12.41-1.85-18.13a11.61,11.61,0,0,0-3.11-4.75,9.7,9.7,0,0,0-3.23-1.61,14.71,14.71,0,0,0-9.23,0,10.49,10.49,0,0,0-6.5,6.33c-2.79,9,2.24,16.81,4.7,23.83.62,1.78,1.39,3.69,3,4.59a5.86,5.86,0,0,0,2.71.62C926.84,410.07,932.32,405,934.12,399.06Z"/><path class="cls-1" d="M1389,1013.73c1.79-5.93.53-12.4-1.85-18.13a11.64,11.64,0,0,0-3.11-4.74,9.7,9.7,0,0,0-3.23-1.61,14.71,14.71,0,0,0-9.23,0,10.5,10.5,0,0,0-6.5,6.32c-2.79,9,2.24,16.82,4.7,23.84.62,1.78,1.39,3.69,3,4.59a5.86,5.86,0,0,0,2.71.62C1381.71,1024.75,1387.19,1019.67,1389,1013.73Z"/><path class="cls-1" d="M175.71,1163.67c6.3.42,11-2.23,16.18-4,8.82-3,19.6-3.55,26.13-9.25a8.61,8.61,0,0,0,3.21-5.49c.28-2.34,1.24-5.87-5.3-9.5-9.86-5.93-20.87-7.51-28-4-2.55,1.26-4.6,3.1-7.1,4.42-4.43,2.34-10.11,3-15.06,4.63s-9.36,5.37-7.22,11.42C160.81,1158.3,169.41,1163.26,175.71,1163.67Z"/><path class="cls-1" d="M787.58,1195.55c2.09.24,3.6-.54,5.27-1,2.87-.83,6.41-.83,8.47-2.58a2.43,2.43,0,0,0,1-1.73c.05-.76.31-1.9-1.91-3.19-3.36-2.1-7-2.81-9.31-1.78-.82.36-1.47.93-2.27,1.31-1.42.69-3.29.8-4.89,1.26s-3,1.59-2.19,3.6S785.49,1195.31,787.58,1195.55Z"/><path class="cls-1" d="M332.18,265c-1-2.58-2.95-4.14-4.63-6-2.89-3.16-5.07-7.4-8.7-9.31a4.59,4.59,0,0,0-2.93-.61c-1.06.18-2.75.23-3.12,3.3-.76,4.68.55,9.28,3.34,11.7,1,.87,2.16,1.46,3.18,2.3,1.8,1.48,3.1,3.68,4.71,5.45s4,3.08,6.2,1.48S333.14,267.52,332.18,265Z"/><path class="cls-1" d="M1422.16,1097.86c-1-2.57-3-4.14-4.64-6-2.88-3.16-5.06-7.41-8.69-9.32a4.6,4.6,0,0,0-2.94-.6c-1.05.18-2.74.23-3.11,3.3-.76,4.68.55,9.28,3.34,11.69,1,.87,2.16,1.46,3.17,2.3,1.81,1.48,3.11,3.68,4.71,5.46s4,3.08,6.21,1.47S1423.12,1100.43,1422.16,1097.86Z"/><path class="cls-1" d="M968.68,23.43c1.82-2.06,2.27-4.55,3.12-6.9,1.44-4,4.16-8,4.15-12a4.58,4.58,0,0,0-.84-2.87c-.65-.85-1.49-2.32-4.38-1.21-4.49,1.52-7.94,4.84-8.77,8.43-.29,1.29-.27,2.59-.54,3.88-.46,2.29-1.79,4.47-2.61,6.72s-.85,5,1.61,6.18S966.86,25.48,968.68,23.43Z"/><path class="cls-1" d="M1313.58,1161.65c1.82-2.06,2.27-4.55,3.11-6.9,1.44-4,4.17-8,4.16-12a4.67,4.67,0,0,0-.84-2.88c-.66-.85-1.49-2.32-4.38-1.21-4.49,1.52-7.94,4.84-8.77,8.44-.3,1.28-.28,2.59-.54,3.88-.46,2.29-1.8,4.46-2.61,6.72s-.85,5,1.6,6.17C1307.91,1165.1,1311.76,1163.7,1313.58,1161.65Z"/><path class="cls-1" d="M103.87,634.76c-.33-1.44-2.74-3.34-5.46-5a21.72,21.72,0,0,0-4.33-2.1,6.68,6.68,0,0,0-3.85-.44c-3.66.67-6.34,2-7.79,3.86s-1.59,4,.72,6.81a12.78,12.78,0,0,0,6,3.84,8.14,8.14,0,0,0,4.42.16c3.18-.82,4.19-2.83,6.65-4.06C101.87,637,104.26,636.43,103.87,634.76Z"/><path class="cls-1" d="M890.69,1070.79c-.33-1.44-2.74-3.35-5.46-5a22.08,22.08,0,0,0-4.34-2.1,6.57,6.57,0,0,0-3.84-.44c-3.67.67-6.34,2-7.79,3.86s-1.59,4,.72,6.81a12.87,12.87,0,0,0,6,3.84,8.24,8.24,0,0,0,4.42.16c3.18-.82,4.19-2.83,6.65-4.07C888.69,1073,891.07,1072.45,890.69,1070.79Z"/><path class="cls-1" d="M340.86,362.78c-.78-3.88-5.25-5.6-7.92-8.52-10.15-10.59-14.52-25.78-24.15-37.15-3.61-4.25-8.81-8-14.32-7.12-1.5.25-2.92.83-4.41,1.11-2.3.44-4.67.15-7,.4-8.28.89-14.63,8.95-15.23,17.25s3.61,16.41,9.57,22.22,13.54,9.67,21.13,13.09a279.56,279.56,0,0,0,26.68,10.41,10.86,10.86,0,0,0,4.58.81c2.08-.24,3.84-1.62,5.46-2.94C338.28,369.89,341.63,366.6,340.86,362.78Z"/></g></g></svg>