<svg xmlns="http://www.w3.org/2000/svg" viewBox="0 0 338.65 333.34"><defs><style>.cls-1{fill:#fad679;}.cls-2{fill:#231f20;}</style></defs><g id="Layer_2" data-name="Layer 2"><g id="Layer_1-2" data-name="Layer 1"><path class="cls-1" d="M51.7,51a7.43,7.43,0,0,0-4-3.34c-1.64-.68-3.39-1-5.05-1.67-4.31-1.65-7.71-5-11.75-7.27C29.09,37.75,27,37,25,37.47s-3.64,2.79-2.78,4.68a20.21,20.21,0,0,0,4,5.18,40.81,40.81,0,0,1,7.45,9.88,21.35,21.35,0,0,0,1.79,3,10.15,10.15,0,0,0,4.27,3.09,11.44,11.44,0,0,0,8.64.11,6.54,6.54,0,0,0,2.58-1.81c1.37-1.7,1.44-4.07,1.44-6.26A9.9,9.9,0,0,0,51.7,51Z"/><path class="cls-1" d="M213.93,313.62c-.23-2.1-.1-4.23-.45-6.32a13.64,13.64,0,0,0-2.3-5.63c-1.05-1.5-2.89-2.89-4.57-2.16a4.26,4.26,0,0,0-1.67,1.57,21.65,21.65,0,0,0-2.34,20.13c1.28,2.69,3.12,1.59,4.63,2.41a3.73,3.73,0,0,1,1.27.94,4.21,4.21,0,0,1,.6,1.89,25.19,25.19,0,0,0,.86,3.63c.5,1.56,1.54,3.34,3.17,3.26,1.22-.06,2.12-1.2,2.6-2.32,1.16-2.73.89-5.86.22-8.75S214.25,316.57,213.93,313.62Z"/><path class="cls-1" d="M309.78,4.46c.08-2.54-2.61-4.53-5.15-4.46s-4.81,1.66-6.58,3.48c-2.5,2.61-4.94,3.52-5.73,6.26a24.54,24.54,0,0,0-.47,4.62c-.15,1.57-.55,3.11-.58,4.68a5.54,5.54,0,0,0,1.52,4.31c1.68,1.53,4.46,1.19,6.3-.13s3-3.4,4.07-5.4l5.49-10.18A7.47,7.47,0,0,0,309.78,4.46Z"/><path class="cls-1" d="M336.68,57.71A14,14,0,0,0,330,52.58a27.65,27.65,0,0,0-28.88,5.09c-6.12,5.68-9.4,14-15.75,19.39-3,2.49-2.17,5.8-.61,8.09s4.66,2.78,7,4.19c4.12,2.42,6.05,7.57,10.18,10a10,10,0,0,0,10.54-.42c2.64-1.85,4.18-4.84,6.06-7.47A31.15,31.15,0,0,1,326,84.12c3.49-2.46,7.59-4.31,10.07-7.79s2.86-7.87,2.49-12A14.87,14.87,0,0,0,336.68,57.71Z"/><path class="cls-1" d="M241.09,210.43c-1.7-1-3.74-1.07-5.67-1.42-3.31-.61-6.54-2-9.89-1.71a5,5,0,0,0-2.34.72c-.68.47-1.87,1.09-.93,2.78a8.8,8.8,0,0,0,7,4.81c1.05.09,2.12,0,3.18,0a49.84,49.84,0,0,1,5.51,1.13c1.83.34,4.08.17,5-1.42S242.79,211.41,241.09,210.43Z"/><path class="cls-1" d="M317.64,137.29a12.69,12.69,0,0,0-3.83-1.06A49.76,49.76,0,0,0,292,137.79a2,2,0,0,0-.91.47,1.83,1.83,0,0,0-.39,1.14c-.12,1.47-1.36,3.71,1,4.57a30.42,30.42,0,0,0,16.24,1.16c4-.81,8-2.6,10.25-6a1.45,1.45,0,0,0,.32-1A1.36,1.36,0,0,0,317.64,137.29Z"/><path class="cls-1" d="M175.5,274a8.66,8.66,0,0,0-5.15-5.56,2.82,2.82,0,0,0-1.78-.2,2.66,2.66,0,0,0-1.6,2,6,6,0,0,0,.26,3.94c1.33,2.81,1.42,5.8,3.21,8.42a3.29,3.29,0,0,0,1.47,1.32,3.58,3.58,0,0,0,2.61-.43,4,4,0,0,0,1.61-1.11c.83-1.11.39-2.67.12-4S175.92,275.4,175.5,274Z"/><path class="cls-1" d="M252.75,287.88a17.55,17.55,0,0,0,1.93-5.77,18.62,18.62,0,0,0,.55-4.92c-.22-3.65-2.4-6.83-3.92-10.15-1.82-4-2.95-8.59-6.45-11.19a5.89,5.89,0,0,0-3-1.23,7.13,7.13,0,0,0-2.73.49,11,11,0,0,0-3.61,1.83,5.36,5.36,0,0,0-2,3.41c-.37,5,2,9.27,4,13.56,2.8,6,6.53,12,12.45,14.91a2.39,2.39,0,0,0,1.18.33A2.3,2.3,0,0,0,252.75,287.88Z"/><path class="cls-1" d="M95,230.51a5.1,5.1,0,0,0-3.48-2.6,3.69,3.69,0,0,0-2.13-.07c-.68.23-1,.42-1.39,1.44a19.41,19.41,0,0,0-1.19,8,11,11,0,0,0,2.58,6.91c.84.9,2.15,1.62,3.27,1.12a3.1,3.1,0,0,0,1.48-2.05c.74-2.46.37-5.12.74-7.66C95.12,233.9,95.69,232.09,95,230.51Z"/><path class="cls-1" d="M70.09,159.52c-1.17-1.28-3.24-.91-4.9-1.39-6.2-1.65-11.29-6.34-17.47-8.4-2.31-.77-5.11-1-7,.59-.5.43-.9,1-1.4,1.42-.75.68-1.71,1.11-2.52,1.74-2.89,2.21-3.43,6.66-1.77,9.9s5.08,5.32,8.63,6.14a31.24,31.24,0,0,0,10.87.09,123.48,123.48,0,0,0,12.34-2.17,4.71,4.71,0,0,0,1.89-.74,4.83,4.83,0,0,0,1.38-2.34C70.74,162.76,71.24,160.77,70.09,159.52Z"/><path class="cls-1" d="M39.44,91.38a6.12,6.12,0,0,0-2-2.67,7.38,7.38,0,0,0-2.63-1,28.64,28.64,0,0,0-6.11-1.1c-2.85-.14-3.76-2.72-5.66-4.18a55.83,55.83,0,0,0-8.46-5.64,21.58,21.58,0,0,0-9.74-2.61,3.6,3.6,0,0,0-2,.45,3.43,3.43,0,0,0-1,1.29,16,16,0,0,0-1,12.18,21.73,21.73,0,0,0,7,10.19,20.45,20.45,0,0,0,5.11,3.21,57.35,57.35,0,0,0,7.87,2.2c4.64,1.23,9.11,3.34,13.91,3.62a3.75,3.75,0,0,0,1.91-.27,3.88,3.88,0,0,0,1.51-1.8C40.27,101,41.37,95.79,39.44,91.38Z"/><path class="cls-1" d="M28.52,197a59.16,59.16,0,0,0,6.16-2.42c1.2-.56,2.51-1.3,2.86-2.59a4.8,4.8,0,0,0-.86-3.43c-.83-1.51-1.93-3.19-3.64-3.32-1.51-.12-2.78,1.06-3.84,2.15-1.53,1.34-3.84,2.45-4.93,3.63a6.11,6.11,0,0,0-1.59,4.44,2.48,2.48,0,0,0,1,2.07,2.58,2.58,0,0,0,1.37.24A13.24,13.24,0,0,0,28.52,197Z"/><path class="cls-1" d="M231.33,5.11c-18.58,2.37-33.59,20.82-32.15,39.49.23,2.88.73,6-.84,8.45-2.93,4.52-10.54,3-14.64.92a12.2,12.2,0,0,0-7.06-1.3c-11.76,1.53-7.06,15.81-12.08,23.91-4.4,7.12-17.14,6-20.22-1.81-2.33-5.92.56-12.44,2.7-18.44s3.12-13.69-1.71-17.83c-3.81-3.25-9.51-2.71-14.36-1.48-7.2,1.84-15.07,5.91-16.36,13.22C112.87,60.05,124,67.77,125,77.68c-7.86,1-15.67-1.53-23.3-3.66s-15.81-3.91-23.35-1.49S64.51,83.06,66.88,90.61C69.49,99,80,101.6,88.35,103.12a6.86,6.86,0,0,1,2.94,1.24c2.62,2,1.79,4.37.59,6.2-3.25,5-9.07,7.56-14.2,10.61s-10.28,7.63-10.39,13.6c-.13,7.19,7.11,12.35,14,14.25,2.28.63,5,1.44,5.61,3.72a5.87,5.87,0,0,1-.33,3.17,49,49,0,0,1-18.45,25.44,4,4,0,0,0-1.64,2.36c-.58,2.69,2,3.58,3.56,5,4.46,4,1.45,12.06-1,16.41a11.82,11.82,0,0,0-1.37,8.1c1.68,8.43,11.1,7.81,18.1,6.19,2.67-.62,5.54-1.36,7.31-3.46s2-5.07,3.72-7.2c2.22-2.83,6.19-3.43,9.77-3.83,13.26-1.46,37.22-35.94,46.45-12.41a15.17,15.17,0,0,0,11.22,9.33,20,20,0,0,1,10.4,5.12c6.72,6.63,6.44,17.28,7.4,26.66,1.12,11,6.76,23.61,17.71,24.83,9.81,1.09,18.31-8.7,18.8-18.56s-5-19.08-11.57-26.41c-2.36-2.62-5.09-5.91-3.93-9.23a8.54,8.54,0,0,1,2.63-3.4,50.41,50.41,0,0,1,19.05-10.65c7.22-2.16,16.44-4,18.26-11.35.8-3.22-.22-6.71.65-9.92,1.49-5.46,7.59-8,12.75-10.32s10.82-6.67,9.92-12.26c-.73-4.57-5.43-7.17-9.41-9.52-4.75-2.8-9.85-7.84-5.86-13.43a10.43,10.43,0,0,1,2.14-2.16l15.68-12.09c1.91-1.47,4-3.31,2.92-6.16a6.1,6.1,0,0,0-1.66-2.28,28.75,28.75,0,0,0-17.51-7.26c-9.29-.52-20.06,3.09-27-3.09-4.85-4.3-5.44-11.89-3.32-18s6.39-11.21,10.25-16.41a151.48,151.48,0,0,0,15.23-25.23c2.7-5.64,5-12.31,2.36-18C247,6.21,238.51,4.19,231.33,5.11Z"/><path class="cls-2" d="M114.66,102.11h-3.19l.77-4.91h3.2l.85-5.57h6.78l-.89,5.57h3.43l-.77,4.91h-3.43l-2.24,14.31h-6.75Z"/><path class="cls-2" d="M129.61,86.89h6.66l-1.7,10.37a28.66,28.66,0,0,1-.58,2.93c2-2.46,4-3.63,6.55-3.64,4,0,6.28,2.26,6.28,6.11a26.87,26.87,0,0,1-.38,3.63l-1.59,10.1h-6.78l1.58-10.18a9.92,9.92,0,0,0,.16-1.6,2.3,2.3,0,0,0-2.62-2.53c-2.45,0-3.66,1.76-4.2,5.35l-1.35,9h-6.71Z"/><path class="cls-2" d="M154.81,108.29c0,2.45,1.29,3.74,3.67,3.74a6.79,6.79,0,0,0,4.75-2.23l3.67,3.7a12.05,12.05,0,0,1-8.57,3.13c-6.32,0-9.91-3.54-9.92-9.5,0-6.59,4.55-11.12,11.1-11.13,6,0,9.86,4,9.87,9.93,0,.51-.08,1.13-.15,1.91l-14.42,0Zm4.66-7.73a4.56,4.56,0,0,0-4.2,3.4H163A3.34,3.34,0,0,0,159.47,100.56Z"/><path class="cls-2" d="M112.42,118.27h7.41l2.16,15a39.08,39.08,0,0,1,.4,4.25c.5-2,.93-3.47,1.24-4.41l4.93-14.89h6.86l2.05,15a39.7,39.7,0,0,1,.39,4.25,31,31,0,0,1,1.36-4.41l5.59-14.9h7.72L140.91,146.1h-7.64l-1.92-13a37.07,37.07,0,0,1-.4-4.25c-.46,1.84-.89,3.32-1.24,4.41l-4.19,12.83h-8Z"/><path class="cls-2" d="M195.83,118.15l-9.32,0-13.23,26.52-5.95-9.62c4.91-.82,7.75-4.18,7.74-8.74a7.28,7.28,0,0,0-4.3-7.09c-2.06-1-4.6-1-7.83-1h-7.41l-4.37,27.88,7.41,0,1.66-10.64,5.4,10.64H180.7l2.65-5.26h9.74l1.14,5.26h7.56Zm-32.56,12.79h-2.34l1.16-7.33h1.09c3.12,0,4.64.93,4.64,3.38S166.23,130.94,163.27,130.94Zm22.88,3.64,2.95-6.4c.19-.43.62-1.52,1.24-3.28a21.17,21.17,0,0,0,.4,3.16l1.29,6.51Z"/><path class="cls-2" d="M207.72,118.14h7.64c3,0,5.49.07,7.56,1.12,2.81,1.44,4.25,3.93,4.26,7.48A9.69,9.69,0,0,1,223,135c-2,1.22-4.44,1.3-7.6,1.3h-3.12l-1.54,9.7h-7.41Zm6.17,12.23c4,0,6.16-.48,6.16-3.36,0-2.11-1.49-3-4.53-3H214.2l-1,6.32Z"/><path class="cls-2" d="M152.27,147.44H143l-12.68,25.41.66-4.19-9.2,0,3.32-21.21h-7.48l-4.37,27.87,16.68,0h7.26l2.65-5.27h9.74l1.14,5.26h7.56Zm-9.69,16.42,3-6.4c.19-.42.62-1.52,1.24-3.27a22.91,22.91,0,0,0,.39,3.16l1.3,6.5Z"/><path class="cls-2" d="M181.61,167.08a7.9,7.9,0,0,1-3.54,6.79c-2.11,1.33-5.07,1.41-9.16,1.41l-9.2,0,4.41-27.88h6.31c3.43,0,6,0,7.8.77A6.13,6.13,0,0,1,182,154a6.45,6.45,0,0,1-5.88,6.76C179.69,161.43,181.6,163.65,181.61,167.08Zm-12.9,2.75c3.7,0,5.61-.44,5.61-3.71,0-2.15-1.33-2.81-4.18-2.8h-1.32l-1,6.51Zm1.54-11.62c3.08,0,4.72-.55,4.71-3.12,0-1.68-1.13-2.34-3.47-2.34h-1.05l-.81,5.46Z"/></g></g></svg>